<svg width="52" height="20" viewBox="0 0 52 20" fill="none" xmlns="http://www.w3.org/2000/svg">
<path d="M0.46 15L5.58 0.999999H8.46L13.58 15H10.86L9.74 11.76H4.28L3.14 15H0.46ZM4.98 9.76H9.04L7 3.94L4.98 9.76ZM14.9234 15V5.08H17.1834L17.3834 6.76C17.6901 6.17333 18.1301 5.70667 18.7034 5.36C19.2901 5.01333 19.9768 4.84 20.7634 4.84C21.9901 4.84 22.9434 5.22667 23.6234 6C24.3034 6.77333 24.6434 7.90667 24.6434 9.4V15H22.0834V9.64C22.0834 8.78667 21.9101 8.13333 21.5634 7.68C21.2168 7.22667 20.6768 7 19.9434 7C19.2234 7 18.6301 7.25333 18.1634 7.76C17.7101 8.26667 17.4834 8.97333 17.4834 9.88V15H14.9234ZM30.8914 12.04C30.4114 12.04 29.9647 11.9867 29.5514 11.88L28.8114 12.62C29.0381 12.74 29.3447 12.84 29.7314 12.92C30.1181 13 30.7447 13.08 31.6114 13.16C32.9314 13.28 33.8914 13.5933 34.4914 14.1C35.0914 14.6067 35.3914 15.3067 35.3914 16.2C35.3914 16.7867 35.2314 17.34 34.9114 17.86C34.5914 18.3933 34.0981 18.82 33.4314 19.14C32.7647 19.4733 31.9114 19.64 30.8714 19.64C29.4581 19.64 28.3181 19.3733 27.4514 18.84C26.5847 18.32 26.1514 17.5333 26.1514 16.48C26.1514 15.5867 26.5847 14.8133 27.4514 14.16C27.1847 14.04 26.9514 13.9133 26.7514 13.78C26.5647 13.6467 26.3981 13.5067 26.2514 13.36V12.9L27.9914 11.06C27.2181 10.38 26.8314 9.50667 26.8314 8.44C26.8314 7.77333 26.9914 7.16667 27.3114 6.62C27.6447 6.07333 28.1114 5.64 28.7114 5.32C29.3114 5 30.0381 4.84 30.8914 4.84C31.4514 4.84 31.9714 4.92 32.4514 5.08H36.2114V6.64L34.5114 6.76C34.7781 7.26667 34.9114 7.82667 34.9114 8.44C34.9114 9.10667 34.7514 9.71333 34.4314 10.26C34.1114 10.8067 33.6447 11.24 33.0314 11.56C32.4314 11.88 31.7181 12.04 30.8914 12.04ZM30.8914 10.08C31.4114 10.08 31.8381 9.94 32.1714 9.66C32.5181 9.38 32.6914 8.98 32.6914 8.46C32.6914 7.94 32.5181 7.54 32.1714 7.26C31.8381 6.98 31.4114 6.84 30.8914 6.84C30.3447 6.84 29.9047 6.98 29.5714 7.26C29.2381 7.54 29.0714 7.94 29.0714 8.46C29.0714 8.98 29.2381 9.38 29.5714 9.66C29.9047 9.94 30.3447 10.08 30.8914 10.08ZM28.4914 16.22C28.4914 16.7133 28.7181 17.08 29.1714 17.32C29.6381 17.5733 30.2047 17.7 30.8714 17.7C31.5114 17.7 32.0314 17.5667 32.4314 17.3C32.8314 17.0467 33.0314 16.7 33.0314 16.26C33.0314 15.9 32.8981 15.6 32.6314 15.36C32.3781 15.12 31.8647 14.9733 31.0914 14.92C30.5447 14.88 30.0381 14.82 29.5714 14.74C29.1847 14.9533 28.9047 15.1867 28.7314 15.44C28.5714 15.6933 28.4914 15.9533 28.4914 16.22ZM42.1075 15.24C41.1075 15.24 40.2208 15.0267 39.4475 14.6C38.6742 14.1733 38.0675 13.5733 37.6275 12.8C37.1875 12.0267 36.9675 11.1333 36.9675 10.12C36.9675 9.09333 37.1808 8.18 37.6075 7.38C38.0475 6.58 38.6475 5.96 39.4075 5.52C40.1808 5.06667 41.0875 4.84 42.1275 4.84C43.1008 4.84 43.9608 5.05333 44.7075 5.48C45.4542 5.90667 46.0342 6.49333 46.4475 7.24C46.8742 7.97333 47.0875 8.79333 47.0875 9.7C47.0875 9.84667 47.0808 10 47.0675 10.16C47.0675 10.32 47.0608 10.4867 47.0475 10.66H39.5075C39.5608 11.4333 39.8275 12.04 40.3075 12.48C40.8008 12.92 41.3942 13.14 42.0875 13.14C42.6075 13.14 43.0408 13.0267 43.3875 12.8C43.7475 12.56 44.0142 12.2533 44.1875 11.88H46.7875C46.6008 12.5067 46.2875 13.08 45.8475 13.6C45.4208 14.1067 44.8875 14.5067 44.2475 14.8C43.6208 15.0933 42.9075 15.24 42.1075 15.24ZM42.1275 6.92C41.5008 6.92 40.9475 7.1 40.4675 7.46C39.9875 7.80667 39.6808 8.34 39.5475 9.06H44.4875C44.4475 8.40667 44.2075 7.88667 43.7675 7.5C43.3275 7.11333 42.7808 6.92 42.1275 6.92ZM48.8406 15V0.599999H51.4006V15H48.8406Z" fill="white"/>
</svg>
