<svg width="119" height="19" viewBox="0 0 119 19" fill="none" xmlns="http://www.w3.org/2000/svg">
<path d="M7.13263 14.4997C5.78996 14.4997 4.63729 14.2147 3.67463 13.6447C2.71196 13.0621 1.97096 12.2577 1.45163 11.2317C0.932294 10.1931 0.672627 8.99606 0.672627 7.64073C0.672627 6.28539 0.932294 5.08839 1.45163 4.04973C1.97096 3.01106 2.71196 2.2004 3.67463 1.61773C4.63729 1.03506 5.78996 0.743728 7.13263 0.743728C8.72863 0.743728 10.0333 1.14273 11.0466 1.94073C12.0726 2.72606 12.7123 3.83439 12.9656 5.26573H10.2866C10.122 4.54373 9.76729 3.98006 9.22263 3.57473C8.69063 3.15673 7.98129 2.94773 7.09463 2.94773C5.86596 2.94773 4.90329 3.36573 4.20663 4.20173C3.50996 5.03773 3.16163 6.18406 3.16163 7.64073C3.16163 9.09739 3.50996 10.2437 4.20663 11.0797C4.90329 11.9031 5.86596 12.3147 7.09463 12.3147C7.98129 12.3147 8.69063 12.1247 9.22263 11.7447C9.76729 11.3521 10.122 10.8137 10.2866 10.1297H12.9656C12.7123 11.4977 12.0726 12.5681 11.0466 13.3407C10.0333 14.1134 8.72863 14.4997 7.13263 14.4997ZM14.0639 14.2717V4.84773H16.2299L16.4579 6.61473C16.7999 6.00673 17.2622 5.52539 17.8449 5.17073C18.4402 4.80339 19.1369 4.61973 19.9349 4.61973V7.18473H19.2509C18.7189 7.18473 18.2439 7.26706 17.8259 7.43173C17.4079 7.5964 17.0786 7.88139 16.8379 8.28673C16.6099 8.69206 16.4959 9.25573 16.4959 9.97773V14.2717H14.0639ZM25.0116 14.4997C24.0616 14.4997 23.2193 14.2971 22.4846 13.8917C21.75 13.4864 21.1736 12.9164 20.7556 12.1817C20.3376 11.4471 20.1286 10.5984 20.1286 9.63573C20.1286 8.66039 20.3313 7.79273 20.7366 7.03273C21.1546 6.27273 21.7246 5.68373 22.4466 5.26573C23.1813 4.83506 24.0426 4.61973 25.0306 4.61973C25.9553 4.61973 26.7723 4.82239 27.4816 5.22773C28.191 5.63306 28.742 6.19039 29.1346 6.89973C29.54 7.5964 29.7426 8.3754 29.7426 9.23673C29.7426 9.37606 29.7363 9.52173 29.7236 9.67373C29.7236 9.82573 29.7173 9.98406 29.7046 10.1487H22.5416C22.5923 10.8834 22.8456 11.4597 23.3016 11.8777C23.7703 12.2957 24.334 12.5047 24.9926 12.5047C25.4866 12.5047 25.8983 12.3971 26.2276 12.1817C26.5696 11.9537 26.823 11.6624 26.9876 11.3077H29.4576C29.2803 11.9031 28.9826 12.4477 28.5646 12.9417C28.1593 13.4231 27.6526 13.8031 27.0446 14.0817C26.4493 14.3604 25.7716 14.4997 25.0116 14.4997ZM25.0306 6.59573C24.4353 6.59573 23.9096 6.76673 23.4536 7.10873C22.9976 7.43806 22.7063 7.94473 22.5796 8.62873H27.2726C27.2346 8.00806 27.0066 7.51406 26.5886 7.14673C26.1706 6.77939 25.6513 6.59573 25.0306 6.59573ZM34.0396 14.4997C33.2289 14.4997 32.5639 14.3731 32.0446 14.1197C31.5253 13.8537 31.1389 13.5054 30.8856 13.0747C30.6323 12.6441 30.5056 12.1691 30.5056 11.6497C30.5056 10.7757 30.8476 10.0664 31.5316 9.52173C32.2156 8.97706 33.2416 8.70473 34.6096 8.70473H37.0036V8.47673C37.0036 7.83073 36.8199 7.35573 36.4526 7.05173C36.0853 6.74773 35.6293 6.59573 35.0846 6.59573C34.5906 6.59573 34.1599 6.71606 33.7926 6.95673C33.4253 7.18473 33.1973 7.52673 33.1086 7.98273H30.7336C30.7969 7.29873 31.0249 6.70339 31.4176 6.19673C31.8229 5.69006 32.3423 5.30373 32.9756 5.03773C33.6089 4.75906 34.3183 4.61973 35.1036 4.61973C36.4463 4.61973 37.5039 4.95539 38.2766 5.62673C39.0493 6.29806 39.4356 7.24806 39.4356 8.47673V14.2717H37.3646L37.1366 12.7517C36.8579 13.2584 36.4653 13.6764 35.9586 14.0057C35.4646 14.3351 34.8249 14.4997 34.0396 14.4997ZM34.5906 12.5997C35.2873 12.5997 35.8256 12.3717 36.2056 11.9157C36.5983 11.4597 36.8453 10.8961 36.9466 10.2247H34.8756C34.2296 10.2247 33.7673 10.3451 33.4886 10.5857C33.2099 10.8137 33.0706 11.0987 33.0706 11.4407C33.0706 11.8081 33.2099 12.0931 33.4886 12.2957C33.7673 12.4984 34.1346 12.5997 34.5906 12.5997ZM44.828 14.2717C43.84 14.2717 43.0484 14.0311 42.453 13.5497C41.8577 13.0684 41.56 12.2134 41.56 10.9847V6.88073H39.945V4.84773H41.56L41.845 2.32073H43.992V4.84773H46.538V6.88073H43.992V11.0037C43.992 11.4597 44.087 11.7764 44.277 11.9537C44.4797 12.1184 44.8217 12.2007 45.303 12.2007H46.481V14.2717H44.828ZM51.9664 14.4997C51.0164 14.4997 50.1741 14.2971 49.4394 13.8917C48.7047 13.4864 48.1284 12.9164 47.7104 12.1817C47.2924 11.4471 47.0834 10.5984 47.0834 9.63573C47.0834 8.66039 47.2861 7.79273 47.6914 7.03273C48.1094 6.27273 48.6794 5.68373 49.4014 5.26573C50.1361 4.83506 50.9974 4.61973 51.9854 4.61973C52.9101 4.61973 53.7271 4.82239 54.4364 5.22773C55.1457 5.63306 55.6967 6.19039 56.0894 6.89973C56.4947 7.5964 56.6974 8.3754 56.6974 9.23673C56.6974 9.37606 56.6911 9.52173 56.6784 9.67373C56.6784 9.82573 56.6721 9.98406 56.6594 10.1487H49.4964C49.5471 10.8834 49.8004 11.4597 50.2564 11.8777C50.7251 12.2957 51.2887 12.5047 51.9474 12.5047C52.4414 12.5047 52.8531 12.3971 53.1824 12.1817C53.5244 11.9537 53.7777 11.6624 53.9424 11.3077H56.4124C56.2351 11.9031 55.9374 12.4477 55.5194 12.9417C55.1141 13.4231 54.6074 13.8031 53.9994 14.0817C53.4041 14.3604 52.7264 14.4997 51.9664 14.4997ZM51.9854 6.59573C51.3901 6.59573 50.8644 6.76673 50.4084 7.10873C49.9524 7.43806 49.6611 7.94473 49.5344 8.62873H54.2274C54.1894 8.00806 53.9614 7.51406 53.5434 7.14673C53.1254 6.77939 52.6061 6.59573 51.9854 6.59573ZM61.3322 14.2717V0.971728H66.2532C67.3172 0.971728 68.1975 1.14906 68.8942 1.50373C69.5909 1.85839 70.1102 2.34606 70.4522 2.96673C70.7942 3.58739 70.9652 4.28406 70.9652 5.05673C70.9652 5.79139 70.8005 6.46906 70.4712 7.08973C70.1419 7.69773 69.6289 8.19173 68.9322 8.57173C68.2355 8.93906 67.3425 9.12273 66.2532 9.12273H63.7642V14.2717H61.3322ZM63.7642 7.14673H66.1012C66.9499 7.14673 67.5579 6.96306 67.9252 6.59573C68.3052 6.21573 68.4952 5.70273 68.4952 5.05673C68.4952 4.39806 68.3052 3.88506 67.9252 3.51773C67.5579 3.13773 66.9499 2.94773 66.1012 2.94773H63.7642V7.14673ZM71.8187 14.2717V0.591728H74.2507V14.2717H71.8187ZM78.9872 14.4997C78.1765 14.4997 77.5115 14.3731 76.9922 14.1197C76.4729 13.8537 76.0865 13.5054 75.8332 13.0747C75.5799 12.6441 75.4532 12.1691 75.4532 11.6497C75.4532 10.7757 75.7952 10.0664 76.4792 9.52173C77.1632 8.97706 78.1892 8.70473 79.5572 8.70473H81.9512V8.47673C81.9512 7.83073 81.7675 7.35573 81.4002 7.05173C81.0329 6.74773 80.5769 6.59573 80.0322 6.59573C79.5382 6.59573 79.1075 6.71606 78.7402 6.95673C78.3729 7.18473 78.1449 7.52673 78.0562 7.98273H75.6812C75.7445 7.29873 75.9725 6.70339 76.3652 6.19673C76.7705 5.69006 77.2899 5.30373 77.9232 5.03773C78.5565 4.75906 79.2659 4.61973 80.0512 4.61973C81.3939 4.61973 82.4515 4.95539 83.2242 5.62673C83.9969 6.29806 84.3832 7.24806 84.3832 8.47673V14.2717H82.3122L82.0842 12.7517C81.8055 13.2584 81.4129 13.6764 80.9062 14.0057C80.4122 14.3351 79.7725 14.4997 78.9872 14.4997ZM79.5382 12.5997C80.2349 12.5997 80.7732 12.3717 81.1532 11.9157C81.5459 11.4597 81.7929 10.8961 81.8942 10.2247H79.8232C79.1772 10.2247 78.7149 10.3451 78.4362 10.5857C78.1575 10.8137 78.0182 11.0987 78.0182 11.4407C78.0182 11.8081 78.1575 12.0931 78.4362 12.2957C78.7149 12.4984 79.0822 12.5997 79.5382 12.5997ZM86.5691 18.4517L88.7541 13.6447H88.1841L84.5171 4.84773H87.1581L89.7991 11.4787L92.5541 4.84773H95.1381L89.1531 18.4517H86.5691ZM95.7305 14.2717V0.591728H98.1625V14.2717H95.7305ZM100.961 3.38473C100.518 3.38473 100.15 3.25173 99.859 2.98573C99.5803 2.71973 99.441 2.38406 99.441 1.97873C99.441 1.57339 99.5803 1.24406 99.859 0.990727C100.15 0.724728 100.518 0.591728 100.961 0.591728C101.404 0.591728 101.765 0.724728 102.044 0.990727C102.335 1.24406 102.481 1.57339 102.481 1.97873C102.481 2.38406 102.335 2.71973 102.044 2.98573C101.765 3.25173 101.404 3.38473 100.961 3.38473ZM99.745 14.2717V4.84773H102.177V14.2717H99.745ZM107.613 14.4997C106.777 14.4997 106.042 14.3667 105.409 14.1007C104.776 13.8221 104.269 13.4421 103.889 12.9607C103.509 12.4794 103.281 11.9221 103.205 11.2887H105.656C105.732 11.6561 105.935 11.9727 106.264 12.2387C106.606 12.4921 107.043 12.6187 107.575 12.6187C108.107 12.6187 108.493 12.5111 108.734 12.2957C108.987 12.0804 109.114 11.8334 109.114 11.5547C109.114 11.1494 108.937 10.8771 108.582 10.7377C108.227 10.5857 107.733 10.4401 107.1 10.3007C106.695 10.2121 106.283 10.1044 105.865 9.97773C105.447 9.85106 105.061 9.69273 104.706 9.50273C104.364 9.30006 104.085 9.04673 103.87 8.74273C103.655 8.42606 103.547 8.03973 103.547 7.58373C103.547 6.74773 103.876 6.04473 104.535 5.47473C105.206 4.90473 106.144 4.61973 107.347 4.61973C108.462 4.61973 109.348 4.87939 110.007 5.39873C110.678 5.91806 111.077 6.63373 111.204 7.54573H108.905C108.766 6.84906 108.24 6.50073 107.328 6.50073C106.872 6.50073 106.517 6.58939 106.264 6.76673C106.023 6.94406 105.903 7.16573 105.903 7.43173C105.903 7.71039 106.087 7.93206 106.454 8.09673C106.821 8.26139 107.309 8.41339 107.917 8.55273C108.576 8.70473 109.177 8.87573 109.722 9.06573C110.279 9.24306 110.723 9.51539 111.052 9.88273C111.381 10.2374 111.546 10.7504 111.546 11.4217C111.559 12.0044 111.407 12.5301 111.09 12.9987C110.773 13.4674 110.317 13.8347 109.722 14.1007C109.127 14.3667 108.424 14.4997 107.613 14.4997ZM116.605 14.2717C115.617 14.2717 114.825 14.0311 114.23 13.5497C113.635 13.0684 113.337 12.2134 113.337 10.9847V6.88073H111.722V4.84773H113.337L113.622 2.32073H115.769V4.84773H118.315V6.88073H115.769V11.0037C115.769 11.4597 115.864 11.7764 116.054 11.9537C116.257 12.1184 116.599 12.2007 117.08 12.2007H118.258V14.2717H116.605Z" fill="white"/>
</svg>
