<svg width="82" height="18" viewBox="0 0 82 18" fill="none" xmlns="http://www.w3.org/2000/svg">
<path d="M0.34858 13.7271V0.42705H4.88958C6.44758 0.42705 7.72691 0.705717 8.72758 1.26305C9.74091 1.80772 10.4882 2.58038 10.9696 3.58105C11.4636 4.56905 11.7106 5.73438 11.7106 7.07705C11.7106 8.41972 11.4636 9.59138 10.9696 10.5921C10.4882 11.5801 9.74091 12.3527 8.72758 12.9101C7.72691 13.4547 6.44758 13.7271 4.88958 13.7271H0.34858ZM2.78058 11.6371H4.77558C5.89025 11.6371 6.77058 11.4597 7.41658 11.1051C8.06258 10.7377 8.52491 10.2184 8.80358 9.54705C9.08225 8.86305 9.22158 8.03972 9.22158 7.07705C9.22158 6.12705 9.08225 5.31005 8.80358 4.62605C8.52491 3.94205 8.06258 3.41638 7.41658 3.04905C6.77058 2.68172 5.89025 2.49805 4.77558 2.49805H2.78058V11.6371ZM16.0509 13.9551C15.2402 13.9551 14.5752 13.8284 14.0559 13.5751C13.5366 13.3091 13.1502 12.9607 12.8969 12.5301C12.6436 12.0994 12.5169 11.6244 12.5169 11.1051C12.5169 10.2311 12.8589 9.52172 13.5429 8.97705C14.2269 8.43238 15.2529 8.16005 16.6209 8.16005H19.0149V7.93205C19.0149 7.28605 18.8312 6.81105 18.4639 6.50705C18.0966 6.20305 17.6406 6.05105 17.0959 6.05105C16.6019 6.05105 16.1712 6.17138 15.8039 6.41205C15.4366 6.64005 15.2086 6.98205 15.1199 7.43805H12.7449C12.8082 6.75405 13.0362 6.15872 13.4289 5.65205C13.8342 5.14538 14.3536 4.75905 14.9869 4.49305C15.6202 4.21438 16.3296 4.07505 17.1149 4.07505C18.4576 4.07505 19.5152 4.41072 20.2879 5.08205C21.0606 5.75338 21.4469 6.70338 21.4469 7.93205V13.7271H19.3759L19.1479 12.2071C18.8692 12.7137 18.4766 13.1317 17.9699 13.4611C17.4759 13.7904 16.8362 13.9551 16.0509 13.9551ZM16.6019 12.0551C17.2986 12.0551 17.8369 11.8271 18.2169 11.3711C18.6096 10.9151 18.8566 10.3514 18.9579 9.68005H16.8869C16.2409 9.68005 15.7786 9.80038 15.4999 10.0411C15.2212 10.2691 15.0819 10.5541 15.0819 10.8961C15.0819 11.2634 15.2212 11.5484 15.4999 11.7511C15.7786 11.9537 16.1459 12.0551 16.6019 12.0551ZM24.0812 2.84005C23.6379 2.84005 23.2705 2.70705 22.9792 2.44105C22.7005 2.17505 22.5612 1.83938 22.5612 1.43405C22.5612 1.02872 22.7005 0.699383 22.9792 0.44605C23.2705 0.18005 23.6379 0.0470502 24.0812 0.0470502C24.5245 0.0470502 24.8855 0.18005 25.1642 0.44605C25.4555 0.699383 25.6012 1.02872 25.6012 1.43405C25.6012 1.83938 25.4555 2.17505 25.1642 2.44105C24.8855 2.70705 24.5245 2.84005 24.0812 2.84005ZM22.8652 13.7271V4.30305H25.2972V13.7271H22.8652ZM26.8381 13.7271V0.0470502H29.2701V13.7271H26.8381ZM31.9356 17.9071L34.1206 13.1001H33.5506L29.8836 4.30305H32.5246L35.1656 10.9341L37.9206 4.30305H40.5046L34.5196 17.9071H31.9356ZM44.6839 13.7271V0.42705H47.5719L51.8089 8.86305L55.9889 0.42705H58.8769V13.7271H56.4449V4.55005L52.7399 11.8271H50.8209L47.1159 4.55005V13.7271H44.6839ZM61.7138 2.84005C61.2705 2.84005 60.9032 2.70705 60.6118 2.44105C60.3332 2.17505 60.1938 1.83938 60.1938 1.43405C60.1938 1.02872 60.3332 0.699383 60.6118 0.44605C60.9032 0.18005 61.2705 0.0470502 61.7138 0.0470502C62.1572 0.0470502 62.5182 0.18005 62.7968 0.44605C63.0882 0.699383 63.2338 1.02872 63.2338 1.43405C63.2338 1.83938 63.0882 2.17505 62.7968 2.44105C62.5182 2.70705 62.1572 2.84005 61.7138 2.84005ZM60.4978 13.7271V4.30305H62.9298V13.7271H60.4978ZM63.5778 13.7271L66.9978 9.01505L63.5778 4.30305H66.1808L68.5748 7.64705L70.9498 4.30305H73.5718L70.1328 9.01505L73.5718 13.7271H70.9498L68.5748 10.3831L66.1808 13.7271H63.5778ZM79.1545 13.7271V3.20105L76.9695 3.71405V1.85205L80.1805 0.42705H81.6815V13.7271H79.1545Z" fill="white"/>
</svg>
