<svg width="132" height="19" viewBox="0 0 132 19" fill="none" xmlns="http://www.w3.org/2000/svg">
<path d="M0.34858 14.1357V0.835741H4.88958C6.44758 0.835741 7.72691 1.11441 8.72758 1.67174C9.74091 2.21641 10.4882 2.98907 10.9696 3.98974C11.4636 4.97774 11.7106 6.14307 11.7106 7.48574C11.7106 8.82841 11.4636 10.0001 10.9696 11.0007C10.4882 11.9887 9.74091 12.7614 8.72758 13.3187C7.72691 13.8634 6.44758 14.1357 4.88958 14.1357H0.34858ZM2.78058 12.0457H4.77558C5.89025 12.0457 6.77058 11.8684 7.41658 11.5137C8.06258 11.1464 8.52491 10.6271 8.80358 9.95574C9.08225 9.27174 9.22158 8.44841 9.22158 7.48574C9.22158 6.53574 9.08225 5.71874 8.80358 5.03474C8.52491 4.35074 8.06258 3.82507 7.41658 3.45774C6.77058 3.09041 5.89025 2.90674 4.77558 2.90674H2.78058V12.0457ZM13.7329 3.24874C13.2896 3.24874 12.9222 3.11574 12.6309 2.84974C12.3522 2.58374 12.2129 2.24808 12.2129 1.84274C12.2129 1.43741 12.3522 1.10807 12.6309 0.854741C12.9222 0.588741 13.2896 0.455742 13.7329 0.455742C14.1762 0.455742 14.5372 0.588741 14.8159 0.854741C15.1072 1.10807 15.2529 1.43741 15.2529 1.84274C15.2529 2.24808 15.1072 2.58374 14.8159 2.84974C14.5372 3.11574 14.1762 3.24874 13.7329 3.24874ZM12.5169 14.1357V4.71174H14.9489V14.1357H12.5169ZM20.0048 14.3637C19.1688 14.3637 18.4342 14.2307 17.8008 13.9647C17.1675 13.6861 16.6608 13.3061 16.2808 12.8247C15.9008 12.3434 15.6728 11.7861 15.5968 11.1527H18.0478C18.1238 11.5201 18.3265 11.8367 18.6558 12.1027C18.9978 12.3561 19.4348 12.4827 19.9668 12.4827C20.4988 12.4827 20.8852 12.3751 21.1258 12.1597C21.3792 11.9444 21.5058 11.6974 21.5058 11.4187C21.5058 11.0134 21.3285 10.7411 20.9738 10.6017C20.6192 10.4497 20.1252 10.3041 19.4918 10.1647C19.0865 10.0761 18.6748 9.96841 18.2568 9.84174C17.8388 9.71508 17.4525 9.55674 17.0978 9.36674C16.7558 9.16408 16.4772 8.91074 16.2618 8.60674C16.0465 8.29008 15.9388 7.90374 15.9388 7.44774C15.9388 6.61174 16.2682 5.90874 16.9268 5.33874C17.5982 4.76874 18.5355 4.48374 19.7388 4.48374C20.8535 4.48374 21.7402 4.74341 22.3988 5.26274C23.0702 5.78208 23.4692 6.49774 23.5958 7.40974H21.2968C21.1575 6.71308 20.6318 6.36474 19.7198 6.36474C19.2638 6.36474 18.9092 6.45341 18.6558 6.63074C18.4152 6.80808 18.2948 7.02974 18.2948 7.29574C18.2948 7.57441 18.4785 7.79608 18.8458 7.96074C19.2132 8.12541 19.7008 8.27741 20.3088 8.41674C20.9675 8.56874 21.5692 8.73974 22.1138 8.92974C22.6712 9.10708 23.1145 9.37941 23.4438 9.74674C23.7732 10.1014 23.9378 10.6144 23.9378 11.2857C23.9505 11.8684 23.7985 12.3941 23.4818 12.8627C23.1652 13.3314 22.7092 13.6987 22.1138 13.9647C21.5185 14.2307 20.8155 14.3637 20.0048 14.3637ZM29.3317 14.3637C28.3691 14.3637 27.5204 14.1547 26.7857 13.7367C26.0511 13.3187 25.4684 12.7361 25.0377 11.9887C24.6197 11.2414 24.4107 10.3864 24.4107 9.42374C24.4107 8.46108 24.6197 7.60608 25.0377 6.85874C25.4684 6.11141 26.0511 5.52874 26.7857 5.11074C27.5204 4.69274 28.3691 4.48374 29.3317 4.48374C30.5351 4.48374 31.5484 4.80041 32.3717 5.43374C33.1951 6.05441 33.7207 6.91574 33.9487 8.01774H31.3837C31.2571 7.56174 31.0037 7.20708 30.6237 6.95374C30.2564 6.68774 29.8194 6.55474 29.3127 6.55474C28.6414 6.55474 28.0714 6.80808 27.6027 7.31474C27.1341 7.82141 26.8997 8.52441 26.8997 9.42374C26.8997 10.3231 27.1341 11.0261 27.6027 11.5327C28.0714 12.0394 28.6414 12.2927 29.3127 12.2927C29.8194 12.2927 30.2564 12.1661 30.6237 11.9127C31.0037 11.6594 31.2571 11.2984 31.3837 10.8297H33.9487C33.7207 11.8937 33.1951 12.7487 32.3717 13.3947C31.5484 14.0407 30.5351 14.3637 29.3317 14.3637ZM39.2518 14.3637C38.3398 14.3637 37.5165 14.1547 36.7818 13.7367C36.0598 13.3187 35.4835 12.7424 35.0528 12.0077C34.6348 11.2604 34.4258 10.3991 34.4258 9.42374C34.4258 8.44841 34.6412 7.59341 35.0718 6.85874C35.5025 6.11141 36.0788 5.52874 36.8008 5.11074C37.5355 4.69274 38.3588 4.48374 39.2708 4.48374C40.1702 4.48374 40.9808 4.69274 41.7028 5.11074C42.4375 5.52874 43.0138 6.11141 43.4318 6.85874C43.8625 7.59341 44.0778 8.44841 44.0778 9.42374C44.0778 10.3991 43.8625 11.2604 43.4318 12.0077C43.0138 12.7424 42.4375 13.3187 41.7028 13.7367C40.9682 14.1547 40.1512 14.3637 39.2518 14.3637ZM39.2518 12.2547C39.8852 12.2547 40.4362 12.0204 40.9048 11.5517C41.3735 11.0704 41.6078 10.3611 41.6078 9.42374C41.6078 8.48641 41.3735 7.78341 40.9048 7.31474C40.4362 6.83341 39.8915 6.59274 39.2708 6.59274C38.6248 6.59274 38.0675 6.83341 37.5988 7.31474C37.1428 7.78341 36.9148 8.48641 36.9148 9.42374C36.9148 10.3611 37.1428 11.0704 37.5988 11.5517C38.0675 12.0204 38.6185 12.2547 39.2518 12.2547ZM46.9569 14.1357L43.4989 4.71174H46.0449L48.4389 11.8367L50.8329 4.71174H53.3789L49.9019 14.1357H46.9569ZM57.6505 14.3637C56.7005 14.3637 55.8582 14.1611 55.1235 13.7557C54.3888 13.3504 53.8125 12.7804 53.3945 12.0457C52.9765 11.3111 52.7675 10.4624 52.7675 9.49974C52.7675 8.52441 52.9702 7.65674 53.3755 6.89674C53.7935 6.13674 54.3635 5.54774 55.0855 5.12974C55.8202 4.69908 56.6815 4.48374 57.6695 4.48374C58.5942 4.48374 59.4112 4.68641 60.1205 5.09174C60.8298 5.49708 61.3808 6.05441 61.7735 6.76374C62.1788 7.46041 62.3815 8.23941 62.3815 9.10074C62.3815 9.24008 62.3752 9.38574 62.3625 9.53774C62.3625 9.68974 62.3562 9.84808 62.3435 10.0127H55.1805C55.2312 10.7474 55.4845 11.3237 55.9405 11.7417C56.4092 12.1597 56.9728 12.3687 57.6315 12.3687C58.1255 12.3687 58.5372 12.2611 58.8665 12.0457C59.2085 11.8177 59.4618 11.5264 59.6265 11.1717H62.0965C61.9192 11.7671 61.6215 12.3117 61.2035 12.8057C60.7982 13.2871 60.2915 13.6671 59.6835 13.9457C59.0882 14.2244 58.4105 14.3637 57.6505 14.3637ZM57.6695 6.45974C57.0742 6.45974 56.5485 6.63074 56.0925 6.97274C55.6365 7.30208 55.3452 7.80874 55.2185 8.49274H59.9115C59.8735 7.87208 59.6455 7.37808 59.2275 7.01074C58.8095 6.64341 58.2902 6.45974 57.6695 6.45974ZM63.0495 14.1357V4.71174H65.2155L65.4435 6.47874C65.7855 5.87074 66.2478 5.38941 66.8305 5.03474C67.4258 4.66741 68.1225 4.48374 68.9205 4.48374V7.04874H68.2365C67.7045 7.04874 67.2295 7.13108 66.8115 7.29574C66.3935 7.46041 66.0641 7.74541 65.8235 8.15074C65.5955 8.55608 65.4815 9.11974 65.4815 9.84174V14.1357H63.0495ZM75.11 14.1357L71.595 0.835741H74.198L76.592 11.4187L79.404 0.835741H82.083L84.819 11.4187L87.213 0.835741H89.835L86.225 14.1357H83.337L80.696 4.27474L77.979 14.1357H75.11ZM93.7401 14.3637C92.7901 14.3637 91.9478 14.1611 91.2131 13.7557C90.4784 13.3504 89.9021 12.7804 89.4841 12.0457C89.0661 11.3111 88.8571 10.4624 88.8571 9.49974C88.8571 8.52441 89.0598 7.65674 89.4651 6.89674C89.8831 6.13674 90.4531 5.54774 91.1751 5.12974C91.9098 4.69908 92.7711 4.48374 93.7591 4.48374C94.6838 4.48374 95.5008 4.68641 96.2101 5.09174C96.9194 5.49708 97.4704 6.05441 97.8631 6.76374C98.2684 7.46041 98.4711 8.23941 98.4711 9.10074C98.4711 9.24008 98.4648 9.38574 98.4521 9.53774C98.4521 9.68974 98.4458 9.84808 98.4331 10.0127H91.2701C91.3208 10.7474 91.5741 11.3237 92.0301 11.7417C92.4988 12.1597 93.0624 12.3687 93.7211 12.3687C94.2151 12.3687 94.6268 12.2611 94.9561 12.0457C95.2981 11.8177 95.5514 11.5264 95.7161 11.1717H98.1861C98.0088 11.7671 97.7111 12.3117 97.2931 12.8057C96.8878 13.2871 96.3811 13.6671 95.7731 13.9457C95.1778 14.2244 94.5001 14.3637 93.7401 14.3637ZM93.7591 6.45974C93.1638 6.45974 92.6381 6.63074 92.1821 6.97274C91.7261 7.30208 91.4348 7.80874 91.3081 8.49274H96.0011C95.9631 7.87208 95.7351 7.37808 95.3171 7.01074C94.8991 6.64341 94.3798 6.45974 93.7591 6.45974ZM103.718 14.3637C102.768 14.3637 101.926 14.1611 101.191 13.7557C100.456 13.3504 99.8801 12.7804 99.4621 12.0457C99.0441 11.3111 98.8351 10.4624 98.8351 9.49974C98.8351 8.52441 99.0377 7.65674 99.4431 6.89674C99.8611 6.13674 100.431 5.54774 101.153 5.12974C101.888 4.69908 102.749 4.48374 103.737 4.48374C104.662 4.48374 105.479 4.68641 106.188 5.09174C106.897 5.49708 107.448 6.05441 107.841 6.76374C108.246 7.46041 108.449 8.23941 108.449 9.10074C108.449 9.24008 108.443 9.38574 108.43 9.53774C108.43 9.68974 108.424 9.84808 108.411 10.0127H101.248C101.299 10.7474 101.552 11.3237 102.008 11.7417C102.477 12.1597 103.04 12.3687 103.699 12.3687C104.193 12.3687 104.605 12.2611 104.934 12.0457C105.276 11.8177 105.529 11.5264 105.694 11.1717H108.164C107.987 11.7671 107.689 12.3117 107.271 12.8057C106.866 13.2871 106.359 13.6671 105.751 13.9457C105.156 14.2244 104.478 14.3637 103.718 14.3637ZM103.737 6.45974C103.142 6.45974 102.616 6.63074 102.16 6.97274C101.704 7.30208 101.413 7.80874 101.286 8.49274H105.979C105.941 7.87208 105.713 7.37808 105.295 7.01074C104.877 6.64341 104.358 6.45974 103.737 6.45974ZM109.117 14.1357V0.455742H111.549V8.53074L114.893 4.71174H117.781L113.924 9.00574L118.408 14.1357H115.368L111.549 9.40474V14.1357H109.117ZM118.538 14.1357V0.455742H120.97V14.1357H118.538ZM123.256 18.3157L125.441 13.5087H124.871L121.204 4.71174H123.845L126.486 11.3427L129.241 4.71174H131.825L125.84 18.3157H123.256Z" fill="white"/>
</svg>
