<svg width="49" height="15" viewBox="0 0 49 15" fill="none" xmlns="http://www.w3.org/2000/svg">
<path d="M0.109627 13.9321V0.632128H2.54163V6.16113H8.50763V0.632128H10.9396V13.9321H8.50763V8.13713H2.54163V13.9321H0.109627ZM16.8497 14.1601C15.9377 14.1601 15.1143 13.9511 14.3797 13.5331C13.6577 13.1151 13.0813 12.5388 12.6507 11.8041C12.2327 11.0568 12.0237 10.1955 12.0237 9.22013C12.0237 8.2448 12.239 7.3898 12.6697 6.65513C13.1003 5.9078 13.6767 5.32513 14.3987 4.90713C15.1333 4.48913 15.9567 4.28013 16.8687 4.28013C17.768 4.28013 18.5787 4.48913 19.3007 4.90713C20.0353 5.32513 20.6117 5.9078 21.0297 6.65513C21.4603 7.3898 21.6757 8.2448 21.6757 9.22013C21.6757 10.1955 21.4603 11.0568 21.0297 11.8041C20.6117 12.5388 20.0353 13.1151 19.3007 13.5331C18.566 13.9511 17.749 14.1601 16.8497 14.1601ZM16.8497 12.0511C17.483 12.0511 18.034 11.8168 18.5027 11.3481C18.9713 10.8668 19.2057 10.1575 19.2057 9.22013C19.2057 8.2828 18.9713 7.5798 18.5027 7.11113C18.034 6.6298 17.4893 6.38913 16.8687 6.38913C16.2227 6.38913 15.6653 6.6298 15.1967 7.11113C14.7407 7.5798 14.5127 8.2828 14.5127 9.22013C14.5127 10.1575 14.7407 10.8668 15.1967 11.3481C15.6653 11.8168 16.2163 12.0511 16.8497 12.0511ZM22.7101 13.9321V4.50813H24.8571L25.0661 5.78113C25.3701 5.32513 25.7691 4.96413 26.2631 4.69813C26.7698 4.41946 27.3525 4.28013 28.0111 4.28013C29.4678 4.28013 30.5001 4.8438 31.1081 5.97113C31.4501 5.4518 31.9061 5.04013 32.4761 4.73613C33.0588 4.43213 33.6921 4.28013 34.3761 4.28013C35.6048 4.28013 36.5485 4.64746 37.2071 5.38213C37.8658 6.1168 38.1951 7.19346 38.1951 8.61213V13.9321H35.7631V8.84013C35.7631 8.02946 35.6048 7.4088 35.2881 6.97813C34.9841 6.54746 34.5091 6.33213 33.8631 6.33213C33.2045 6.33213 32.6725 6.5728 32.2671 7.05413C31.8745 7.53546 31.6781 8.2068 31.6781 9.06813V13.9321H29.2461V8.84013C29.2461 8.02946 29.0878 7.4088 28.7711 6.97813C28.4545 6.54746 27.9668 6.33213 27.3081 6.33213C26.6621 6.33213 26.1365 6.5728 25.7311 7.05413C25.3385 7.53546 25.1421 8.2068 25.1421 9.06813V13.9321H22.7101ZM43.9431 14.1601C42.9931 14.1601 42.1507 13.9575 41.4161 13.5521C40.6814 13.1468 40.1051 12.5768 39.6871 11.8421C39.2691 11.1075 39.0601 10.2588 39.0601 9.29613C39.0601 8.3208 39.2627 7.45313 39.6681 6.69313C40.0861 5.93313 40.6561 5.34413 41.3781 4.92613C42.1127 4.49546 42.9741 4.28013 43.9621 4.28013C44.8867 4.28013 45.7037 4.4828 46.4131 4.88813C47.1224 5.29346 47.6734 5.8508 48.0661 6.56013C48.4714 7.2568 48.6741 8.0358 48.6741 8.89713C48.6741 9.03646 48.6677 9.18213 48.6551 9.33413C48.6551 9.48613 48.6487 9.64446 48.6361 9.80913H41.4731C41.5237 10.5438 41.7771 11.1201 42.2331 11.5381C42.7017 11.9561 43.2654 12.1651 43.9241 12.1651C44.4181 12.1651 44.8297 12.0575 45.1591 11.8421C45.5011 11.6141 45.7544 11.3228 45.9191 10.9681H48.3891C48.2117 11.5635 47.9141 12.1081 47.4961 12.6021C47.0907 13.0835 46.5841 13.4635 45.9761 13.7421C45.3807 14.0208 44.7031 14.1601 43.9431 14.1601ZM43.9621 6.25613C43.3667 6.25613 42.8411 6.42713 42.3851 6.76913C41.9291 7.09846 41.6377 7.60513 41.5111 8.28913H46.2041C46.1661 7.66846 45.9381 7.17446 45.5201 6.80713C45.1021 6.4398 44.5827 6.25613 43.9621 6.25613Z" fill="white"/>
</svg>
