<svg width="86" height="19" viewBox="0 0 86 19" fill="none" xmlns="http://www.w3.org/2000/svg">
<path d="M0.109627 14.0615V0.761523H2.54163V14.0615H0.109627ZM4.06489 14.0615V4.63752H6.21189L6.40189 6.23352C6.69323 5.67619 7.11123 5.23286 7.65589 4.90352C8.21323 4.57419 8.86556 4.40952 9.61289 4.40952C10.7782 4.40952 11.6839 4.77686 12.3299 5.51152C12.9759 6.24619 13.2989 7.32286 13.2989 8.74152V14.0615H10.8669V8.96952C10.8669 8.15886 10.7022 7.53819 10.3729 7.10752C10.0436 6.67686 9.53056 6.46152 8.83389 6.46152C8.14989 6.46152 7.58623 6.70219 7.14289 7.18352C6.71223 7.66486 6.49689 8.33619 6.49689 9.19752V14.0615H4.06489ZM18.522 14.2895C17.686 14.2895 16.9513 14.1565 16.318 13.8905C15.6846 13.6119 15.178 13.2319 14.798 12.7505C14.418 12.2692 14.19 11.7119 14.114 11.0785H16.565C16.641 11.4459 16.8436 11.7625 17.173 12.0285C17.515 12.2819 17.952 12.4085 18.484 12.4085C19.016 12.4085 19.4023 12.3009 19.643 12.0855C19.8963 11.8702 20.023 11.6232 20.023 11.3445C20.023 10.9392 19.8456 10.6669 19.491 10.5275C19.1363 10.3755 18.6423 10.2299 18.009 10.0905C17.6036 10.0019 17.192 9.89419 16.774 9.76752C16.356 9.64086 15.9696 9.48252 15.615 9.29252C15.273 9.08986 14.9943 8.83652 14.779 8.53252C14.5636 8.21586 14.456 7.82952 14.456 7.37352C14.456 6.53752 14.7853 5.83452 15.444 5.26452C16.1153 4.69452 17.0526 4.40952 18.256 4.40952C19.3706 4.40952 20.2573 4.66919 20.916 5.18852C21.5873 5.70786 21.9863 6.42352 22.113 7.33552H19.814C19.6746 6.63886 19.149 6.29052 18.237 6.29052C17.781 6.29052 17.4263 6.37919 17.173 6.55652C16.9323 6.73386 16.812 6.95552 16.812 7.22152C16.812 7.50019 16.9956 7.72186 17.363 7.88652C17.7303 8.05119 18.218 8.20319 18.826 8.34252C19.4846 8.49452 20.0863 8.66552 20.631 8.85552C21.1883 9.03286 21.6316 9.30519 21.961 9.67252C22.2903 10.0272 22.455 10.5402 22.455 11.2115C22.4676 11.7942 22.3156 12.3199 21.999 12.7885C21.6823 13.2572 21.2263 13.6245 20.631 13.8905C20.0356 14.1565 19.3326 14.2895 18.522 14.2895ZM27.514 14.0615C26.526 14.0615 25.7343 13.8209 25.139 13.3395C24.5437 12.8582 24.246 12.0032 24.246 10.7745V6.67052H22.631V4.63752H24.246L24.531 2.11052H26.678V4.63752H29.224V6.67052H26.678V10.7935C26.678 11.2495 26.773 11.5662 26.963 11.7435C27.1657 11.9082 27.5077 11.9905 27.989 11.9905H29.167V14.0615H27.514ZM33.5636 14.2895C32.7529 14.2895 32.0879 14.1629 31.5686 13.9095C31.0492 13.6435 30.6629 13.2952 30.4096 12.8645C30.1562 12.4339 30.0296 11.9589 30.0296 11.4395C30.0296 10.5655 30.3716 9.85619 31.0556 9.31152C31.7396 8.76686 32.7656 8.49452 34.1336 8.49452H36.5276V8.26652C36.5276 7.62052 36.3439 7.14552 35.9766 6.84152C35.6092 6.53752 35.1532 6.38552 34.6086 6.38552C34.1146 6.38552 33.6839 6.50586 33.3166 6.74652C32.9492 6.97452 32.7212 7.31652 32.6326 7.77252H30.2576C30.3209 7.08852 30.5489 6.49319 30.9416 5.98652C31.3469 5.47986 31.8662 5.09352 32.4996 4.82752C33.1329 4.54886 33.8422 4.40952 34.6276 4.40952C35.9702 4.40952 37.0279 4.74519 37.8006 5.41652C38.5732 6.08786 38.9596 7.03786 38.9596 8.26652V14.0615H36.8886L36.6606 12.5415C36.3819 13.0482 35.9892 13.4662 35.4826 13.7955C34.9886 14.1249 34.3489 14.2895 33.5636 14.2895ZM34.1146 12.3895C34.8112 12.3895 35.3496 12.1615 35.7296 11.7055C36.1222 11.2495 36.3692 10.6859 36.4706 10.0145H34.3996C33.7536 10.0145 33.2912 10.1349 33.0126 10.3755C32.7339 10.6035 32.5946 10.8885 32.5946 11.2305C32.5946 11.5979 32.7339 11.8829 33.0126 12.0855C33.2912 12.2882 33.6586 12.3895 34.1146 12.3895ZM40.2829 14.0615V0.381523H42.7149V14.0615H40.2829ZM44.2024 14.0615V0.381523H46.6344V14.0615H44.2024ZM50.8537 14.0615L55.7177 0.761523H58.4537L63.3177 14.0615H60.7337L59.6697 10.9835H54.4827L53.3997 14.0615H50.8537ZM55.1477 9.08352H59.0047L57.0667 3.55452L55.1477 9.08352ZM63.9765 18.2415V4.63752H66.1425L66.4085 5.98652C66.7125 5.56852 67.1115 5.20119 67.6055 4.88452C68.1122 4.56786 68.7645 4.40952 69.5625 4.40952C70.4492 4.40952 71.2408 4.62486 71.9375 5.05552C72.6342 5.48619 73.1852 6.07519 73.5905 6.82252C73.9958 7.56986 74.1985 8.41852 74.1985 9.36852C74.1985 10.3185 73.9958 11.1672 73.5905 11.9145C73.1852 12.6492 72.6342 13.2319 71.9375 13.6625C71.2408 14.0805 70.4492 14.2895 69.5625 14.2895C68.8532 14.2895 68.2325 14.1565 67.7005 13.8905C67.1685 13.6245 66.7378 13.2509 66.4085 12.7695V18.2415H63.9765ZM69.0495 12.1615C69.8222 12.1615 70.4618 11.9019 70.9685 11.3825C71.4752 10.8632 71.7285 10.1919 71.7285 9.36852C71.7285 8.54519 71.4752 7.86752 70.9685 7.33552C70.4618 6.80352 69.8222 6.53752 69.0495 6.53752C68.2642 6.53752 67.6182 6.80352 67.1115 7.33552C66.6175 7.85486 66.3705 8.52619 66.3705 9.34952C66.3705 10.1729 66.6175 10.8505 67.1115 11.3825C67.6182 11.9019 68.2642 12.1615 69.0495 12.1615ZM75.3735 18.2415V4.63752H77.5395L77.8055 5.98652C78.1095 5.56852 78.5085 5.20119 79.0025 4.88452C79.5092 4.56786 80.1615 4.40952 80.9595 4.40952C81.8462 4.40952 82.6379 4.62486 83.3345 5.05552C84.0312 5.48619 84.5822 6.07519 84.9875 6.82252C85.3929 7.56986 85.5955 8.41852 85.5955 9.36852C85.5955 10.3185 85.3929 11.1672 84.9875 11.9145C84.5822 12.6492 84.0312 13.2319 83.3345 13.6625C82.6379 14.0805 81.8462 14.2895 80.9595 14.2895C80.2502 14.2895 79.6295 14.1565 79.0975 13.8905C78.5655 13.6245 78.1349 13.2509 77.8055 12.7695V18.2415H75.3735ZM80.4465 12.1615C81.2192 12.1615 81.8589 11.9019 82.3655 11.3825C82.8722 10.8632 83.1255 10.1919 83.1255 9.36852C83.1255 8.54519 82.8722 7.86752 82.3655 7.33552C81.8589 6.80352 81.2192 6.53752 80.4465 6.53752C79.6612 6.53752 79.0152 6.80352 78.5085 7.33552C78.0145 7.85486 77.7675 8.52619 77.7675 9.34952C77.7675 10.1729 78.0145 10.8505 78.5085 11.3825C79.0152 11.9019 79.6612 12.1615 80.4465 12.1615Z" fill="white"/>
</svg>
