<svg width="86" height="19" viewBox="0 0 86 19" fill="none" xmlns="http://www.w3.org/2000/svg">
<path d="M0.34858 14.5447V1.24468H3.23658L7.47358 9.68068L11.6536 1.24468H14.5416V14.5447H12.1096V5.36768L8.40458 12.6447H6.48558L2.78058 5.36768V14.5447H0.34858ZM18.9365 14.7727C18.1259 14.7727 17.4609 14.646 16.9415 14.3927C16.4222 14.1267 16.0358 13.7783 15.7825 13.3477C15.5292 12.917 15.4025 12.442 15.4025 11.9227C15.4025 11.0487 15.7445 10.3393 16.4285 9.79468C17.1125 9.25001 18.1385 8.97768 19.5065 8.97768H21.9005V8.74968C21.9005 8.10368 21.7169 7.62868 21.3495 7.32468C20.9822 7.02068 20.5262 6.86868 19.9815 6.86868C19.4875 6.86868 19.0568 6.98901 18.6895 7.22968C18.3222 7.45768 18.0942 7.79968 18.0055 8.25568H15.6305C15.6938 7.57168 15.9218 6.97634 16.3145 6.46968C16.7199 5.96301 17.2392 5.57668 17.8725 5.31068C18.5058 5.03201 19.2152 4.89268 20.0005 4.89268C21.3432 4.89268 22.4009 5.22834 23.1735 5.89968C23.9462 6.57101 24.3325 7.52101 24.3325 8.74968V14.5447H22.2615L22.0335 13.0247C21.7549 13.5313 21.3622 13.9493 20.8555 14.2787C20.3615 14.608 19.7219 14.7727 18.9365 14.7727ZM19.4875 12.8727C20.1842 12.8727 20.7225 12.6447 21.1025 12.1887C21.4952 11.7327 21.7422 11.169 21.8435 10.4977H19.7725C19.1265 10.4977 18.6642 10.618 18.3855 10.8587C18.1069 11.0867 17.9675 11.3717 17.9675 11.7137C17.9675 12.081 18.1069 12.366 18.3855 12.5687C18.6642 12.7713 19.0315 12.8727 19.4875 12.8727ZM25.2758 14.5447V0.864677H27.7078V14.5447H25.2758ZM32.0643 14.7727C31.2537 14.7727 30.5887 14.646 30.0693 14.3927C29.55 14.1267 29.1637 13.7783 28.9103 13.3477C28.657 12.917 28.5303 12.442 28.5303 11.9227C28.5303 11.0487 28.8723 10.3393 29.5563 9.79468C30.2403 9.25001 31.2663 8.97768 32.6343 8.97768H35.0283V8.74968C35.0283 8.10368 34.8447 7.62868 34.4773 7.32468C34.11 7.02068 33.654 6.86868 33.1093 6.86868C32.6153 6.86868 32.1847 6.98901 31.8173 7.22968C31.45 7.45768 31.222 7.79968 31.1333 8.25568H28.7583C28.8217 7.57168 29.0497 6.97634 29.4423 6.46968C29.8477 5.96301 30.367 5.57668 31.0003 5.31068C31.6337 5.03201 32.343 4.89268 33.1283 4.89268C34.471 4.89268 35.5287 5.22834 36.3013 5.89968C37.074 6.57101 37.4603 7.52101 37.4603 8.74968V14.5447H35.3893L35.1613 13.0247C34.8827 13.5313 34.49 13.9493 33.9833 14.2787C33.4893 14.608 32.8497 14.7727 32.0643 14.7727ZM32.6153 12.8727C33.312 12.8727 33.8503 12.6447 34.2303 12.1887C34.623 11.7327 34.87 11.169 34.9713 10.4977H32.9003C32.2543 10.4977 31.792 10.618 31.5133 10.8587C31.2347 11.0867 31.0953 11.3717 31.0953 11.7137C31.0953 12.081 31.2347 12.366 31.5133 12.5687C31.792 12.7713 32.1593 12.8727 32.6153 12.8727ZM39.2662 18.7247L41.4512 13.9177H40.8812L37.2142 5.12068H39.8552L42.4962 11.7517L45.2512 5.12068H47.8352L41.8502 18.7247H39.2662ZM50.5544 14.7727C49.7438 14.7727 49.0788 14.646 48.5594 14.3927C48.0401 14.1267 47.6538 13.7783 47.4004 13.3477C47.1471 12.917 47.0204 12.442 47.0204 11.9227C47.0204 11.0487 47.3624 10.3393 48.0464 9.79468C48.7304 9.25001 49.7564 8.97768 51.1244 8.97768H53.5184V8.74968C53.5184 8.10368 53.3348 7.62868 52.9674 7.32468C52.6001 7.02068 52.1441 6.86868 51.5994 6.86868C51.1054 6.86868 50.6748 6.98901 50.3074 7.22968C49.9401 7.45768 49.7121 7.79968 49.6234 8.25568H47.2484C47.3118 7.57168 47.5398 6.97634 47.9324 6.46968C48.3378 5.96301 48.8571 5.57668 49.4904 5.31068C50.1238 5.03201 50.8331 4.89268 51.6184 4.89268C52.9611 4.89268 54.0188 5.22834 54.7914 5.89968C55.5641 6.57101 55.9504 7.52101 55.9504 8.74968V14.5447H53.8794L53.6514 13.0247C53.3728 13.5313 52.9801 13.9493 52.4734 14.2787C51.9794 14.608 51.3398 14.7727 50.5544 14.7727ZM51.1054 12.8727C51.8021 12.8727 52.3404 12.6447 52.7204 12.1887C53.1131 11.7327 53.3601 11.169 53.4614 10.4977H51.3904C50.7444 10.4977 50.2821 10.618 50.0034 10.8587C49.7248 11.0867 49.5854 11.3717 49.5854 11.7137C49.5854 12.081 49.7248 12.366 50.0034 12.5687C50.2821 12.7713 50.6494 12.8727 51.1054 12.8727ZM56.8938 14.5447V0.864677H59.3258V14.5447H56.8938ZM63.6823 14.7727C62.8716 14.7727 62.2066 14.646 61.6873 14.3927C61.1679 14.1267 60.7816 13.7783 60.5283 13.3477C60.2749 12.917 60.1483 12.442 60.1483 11.9227C60.1483 11.0487 60.4903 10.3393 61.1743 9.79468C61.8583 9.25001 62.8843 8.97768 64.2523 8.97768H66.6463V8.74968C66.6463 8.10368 66.4626 7.62868 66.0953 7.32468C65.7279 7.02068 65.2719 6.86868 64.7273 6.86868C64.2333 6.86868 63.8026 6.98901 63.4353 7.22968C63.0679 7.45768 62.8399 7.79968 62.7513 8.25568H60.3763C60.4396 7.57168 60.6676 6.97634 61.0603 6.46968C61.4656 5.96301 61.9849 5.57668 62.6183 5.31068C63.2516 5.03201 63.9609 4.89268 64.7463 4.89268C66.0889 4.89268 67.1466 5.22834 67.9193 5.89968C68.6919 6.57101 69.0783 7.52101 69.0783 8.74968V14.5447H67.0073L66.7793 13.0247C66.5006 13.5313 66.1079 13.9493 65.6013 14.2787C65.1073 14.608 64.4676 14.7727 63.6823 14.7727ZM64.2333 12.8727C64.9299 12.8727 65.4683 12.6447 65.8483 12.1887C66.2409 11.7327 66.4879 11.169 66.5893 10.4977H64.5183C63.8723 10.4977 63.4099 10.618 63.1313 10.8587C62.8526 11.0867 62.7133 11.3717 62.7133 11.7137C62.7133 12.081 62.8526 12.366 63.1313 12.5687C63.4099 12.7713 63.7773 12.8727 64.2333 12.8727ZM70.0216 14.5447V5.12068H72.1686L72.3776 6.39368C72.6816 5.93768 73.0806 5.57668 73.5746 5.31068C74.0812 5.03201 74.6639 4.89268 75.3226 4.89268C76.7792 4.89268 77.8116 5.45634 78.4196 6.58368C78.7616 6.06434 79.2176 5.65268 79.7876 5.34868C80.3702 5.04468 81.0036 4.89268 81.6876 4.89268C82.9162 4.89268 83.8599 5.26001 84.5186 5.99468C85.1772 6.72934 85.5066 7.80601 85.5066 9.22468V14.5447H83.0746V9.45268C83.0746 8.64201 82.9162 8.02134 82.5996 7.59068C82.2956 7.16001 81.8206 6.94468 81.1746 6.94468C80.5159 6.94468 79.9839 7.18534 79.5786 7.66668C79.1859 8.14801 78.9896 8.81934 78.9896 9.68068V14.5447H76.5576V9.45268C76.5576 8.64201 76.3992 8.02134 76.0826 7.59068C75.7659 7.16001 75.2782 6.94468 74.6196 6.94468C73.9736 6.94468 73.4479 7.18534 73.0426 7.66668C72.6499 8.14801 72.4536 8.81934 72.4536 9.68068V14.5447H70.0216Z" fill="white"/>
</svg>
