<svg width="58" height="14" viewBox="0 0 58 14" fill="none" xmlns="http://www.w3.org/2000/svg">
<path d="M5.65063 13.9211C4.67529 13.9211 3.81396 13.7564 3.06663 13.4271C2.31929 13.0851 1.73029 12.6038 1.29963 11.9831C0.86896 11.3498 0.647294 10.5834 0.634627 9.68412H3.19963C3.22496 10.3048 3.44663 10.8304 3.86463 11.2611C4.29529 11.6791 4.88429 11.8881 5.63163 11.8881C6.27763 11.8881 6.79063 11.7361 7.17063 11.4321C7.55063 11.1154 7.74063 10.6974 7.74063 10.1781C7.74063 9.63345 7.56963 9.20912 7.22763 8.90512C6.89829 8.60111 6.45496 8.35411 5.89763 8.16412C5.34029 7.97411 4.74496 7.77145 4.11163 7.55611C3.08563 7.20145 2.30029 6.74545 1.75563 6.18812C1.22363 5.63078 0.957627 4.88978 0.957627 3.96511C0.94496 3.17978 1.12863 2.50845 1.50863 1.95111C1.90129 1.38111 2.43329 0.944114 3.10463 0.640115C3.77596 0.323448 4.54863 0.165115 5.42263 0.165115C6.30929 0.165115 7.08829 0.323448 7.75963 0.640115C8.44363 0.956781 8.97563 1.40011 9.35563 1.97011C9.74829 2.54011 9.95729 3.21778 9.98263 4.00311H7.37963C7.36696 3.53445 7.18329 3.12278 6.82863 2.76811C6.48663 2.40078 6.00529 2.21711 5.38463 2.21711C4.85263 2.20445 4.40296 2.33745 4.03563 2.61612C3.68096 2.88211 3.50363 3.27478 3.50363 3.79411C3.50363 4.23745 3.64296 4.59211 3.92163 4.85811C4.20029 5.11145 4.58029 5.32678 5.06163 5.50411C5.54296 5.68145 6.09396 5.87145 6.71463 6.07411C7.37329 6.30211 7.97496 6.56811 8.51963 6.87211C9.06429 7.17611 9.50129 7.58145 9.83063 8.08811C10.16 8.58211 10.3246 9.22178 10.3246 10.0071C10.3246 10.7038 10.1473 11.3498 9.79263 11.9451C9.43796 12.5404 8.91229 13.0218 8.21563 13.3891C7.51896 13.7438 6.66396 13.9211 5.65063 13.9211ZM15.8285 13.9211C14.8785 13.9211 14.0362 13.7184 13.3015 13.3131C12.5669 12.9078 11.9905 12.3378 11.5725 11.6031C11.1545 10.8684 10.9455 10.0198 10.9455 9.05711C10.9455 8.08178 11.1482 7.21412 11.5535 6.45412C11.9715 5.69411 12.5415 5.10511 13.2635 4.68711C13.9982 4.25645 14.8595 4.04111 15.8475 4.04111C16.7722 4.04111 17.5892 4.24378 18.2985 4.64912C19.0079 5.05445 19.5589 5.61178 19.9515 6.32112C20.3569 7.01778 20.5595 7.79678 20.5595 8.65811C20.5595 8.79745 20.5532 8.94312 20.5405 9.09511C20.5405 9.24712 20.5342 9.40545 20.5215 9.57012H13.3585C13.4092 10.3048 13.6625 10.8811 14.1185 11.2991C14.5872 11.7171 15.1509 11.9261 15.8095 11.9261C16.3035 11.9261 16.7152 11.8184 17.0445 11.6031C17.3865 11.3751 17.6399 11.0838 17.8045 10.7291H20.2745C20.0972 11.3244 19.7995 11.8691 19.3815 12.3631C18.9762 12.8444 18.4695 13.2244 17.8615 13.5031C17.2662 13.7818 16.5885 13.9211 15.8285 13.9211ZM15.8475 6.01711C15.2522 6.01711 14.7265 6.18812 14.2705 6.53012C13.8145 6.85945 13.5232 7.36611 13.3965 8.05011H18.0895C18.0515 7.42945 17.8235 6.93545 17.4055 6.56811C16.9875 6.20078 16.4682 6.01711 15.8475 6.01711ZM24.714 13.9211C23.9033 13.9211 23.2383 13.7944 22.719 13.5411C22.1997 13.2751 21.8133 12.9268 21.56 12.4961C21.3067 12.0654 21.18 11.5904 21.18 11.0711C21.18 10.1971 21.522 9.48778 22.206 8.94312C22.89 8.39845 23.916 8.12611 25.284 8.12611H27.678V7.89812C27.678 7.25212 27.4943 6.77711 27.127 6.47311C26.7597 6.16911 26.3037 6.01711 25.759 6.01711C25.265 6.01711 24.8343 6.13745 24.467 6.37811C24.0997 6.60611 23.8717 6.94811 23.783 7.40411H21.408C21.4713 6.72011 21.6993 6.12478 22.092 5.61812C22.4973 5.11145 23.0167 4.72511 23.65 4.45911C24.2833 4.18045 24.9927 4.04111 25.778 4.04111C27.1207 4.04111 28.1783 4.37678 28.951 5.04811C29.7237 5.71945 30.11 6.66945 30.11 7.89812V13.6931H28.039L27.811 12.1731C27.5323 12.6798 27.1397 13.0978 26.633 13.4271C26.139 13.7564 25.4993 13.9211 24.714 13.9211ZM25.265 12.0211C25.9617 12.0211 26.5 11.7931 26.88 11.3371C27.2727 10.8811 27.5197 10.3174 27.621 9.64611H25.55C24.904 9.64611 24.4417 9.76645 24.163 10.0071C23.8843 10.2351 23.745 10.5201 23.745 10.8621C23.745 11.2294 23.8843 11.5144 24.163 11.7171C24.4417 11.9198 24.809 12.0211 25.265 12.0211ZM31.2908 13.6931V4.26911H33.4568L33.6848 6.03611C34.0268 5.42811 34.4892 4.94678 35.0718 4.59211C35.6672 4.22478 36.3638 4.04111 37.1618 4.04111V6.60611H36.4778C35.9458 6.60611 35.4708 6.68845 35.0528 6.85311C34.6348 7.01778 34.3055 7.30278 34.0648 7.70811C33.8368 8.11345 33.7228 8.67711 33.7228 9.39912V13.6931H31.2908ZM42.134 13.9211C41.1714 13.9211 40.3227 13.7121 39.588 13.2941C38.8534 12.8761 38.2707 12.2934 37.84 11.5461C37.422 10.7988 37.213 9.94378 37.213 8.98112C37.213 8.01845 37.422 7.16345 37.84 6.41611C38.2707 5.66878 38.8534 5.08611 39.588 4.66811C40.3227 4.25011 41.1714 4.04111 42.134 4.04111C43.3374 4.04111 44.3507 4.35778 45.174 4.99111C45.9974 5.61178 46.523 6.47311 46.751 7.57511H44.186C44.0594 7.11911 43.806 6.76445 43.426 6.51111C43.0587 6.24511 42.6217 6.11211 42.115 6.11211C41.4437 6.11211 40.8737 6.36545 40.405 6.87211C39.9364 7.37878 39.702 8.08178 39.702 8.98112C39.702 9.88045 39.9364 10.5834 40.405 11.0901C40.8737 11.5968 41.4437 11.8501 42.115 11.8501C42.6217 11.8501 43.0587 11.7234 43.426 11.4701C43.806 11.2168 44.0594 10.8558 44.186 10.3871H46.751C46.523 11.4511 45.9974 12.3061 45.174 12.9521C44.3507 13.5981 43.3374 13.9211 42.134 13.9211ZM47.7696 13.6931V0.0131147H50.2016V5.71311C50.5183 5.19378 50.9426 4.78845 51.4746 4.49711C52.0193 4.19311 52.64 4.04111 53.3366 4.04111C54.502 4.04111 55.4013 4.40845 56.0346 5.14311C56.6806 5.87778 57.0036 6.95445 57.0036 8.37312V13.6931H54.5906V8.60112C54.5906 7.79045 54.426 7.16978 54.0966 6.73911C53.78 6.30845 53.2733 6.09312 52.5766 6.09312C51.8926 6.09312 51.3226 6.33378 50.8666 6.81511C50.4233 7.29645 50.2016 7.96778 50.2016 8.82912V13.6931H47.7696Z" fill="white"/>
</svg>
