<svg width="98" height="19" viewBox="0 0 98 19" fill="none" xmlns="http://www.w3.org/2000/svg">
<path d="M4.54863 14.4541V9.7231L0.083627 1.1541H2.83863L5.78363 7.2911L8.70963 1.1541H11.4266L6.98063 9.7231V14.4541H4.54863ZM14.6212 14.6821C13.7092 14.6821 12.8858 14.4731 12.1512 14.0551C11.4292 13.6371 10.8528 13.0608 10.4222 12.3261C10.0042 11.5788 9.79515 10.7174 9.79515 9.7421C9.79515 8.76677 10.0105 7.91177 10.4412 7.1771C10.8718 6.42977 11.4482 5.8471 12.1702 5.4291C12.9048 5.0111 13.7282 4.8021 14.6402 4.8021C15.5395 4.8021 16.3502 5.0111 17.0722 5.4291C17.8068 5.8471 18.3832 6.42977 18.8012 7.1771C19.2318 7.91177 19.4472 8.76677 19.4472 9.7421C19.4472 10.7174 19.2318 11.5788 18.8012 12.3261C18.3832 13.0608 17.8068 13.6371 17.0722 14.0551C16.3375 14.4731 15.5205 14.6821 14.6212 14.6821ZM14.6212 12.5731C15.2545 12.5731 15.8055 12.3388 16.2742 11.8701C16.7428 11.3888 16.9772 10.6794 16.9772 9.7421C16.9772 8.80477 16.7428 8.10177 16.2742 7.6331C15.8055 7.15177 15.2608 6.9111 14.6402 6.9111C13.9942 6.9111 13.4368 7.15177 12.9682 7.6331C12.5122 8.10177 12.2842 8.80477 12.2842 9.7421C12.2842 10.6794 12.5122 11.3888 12.9682 11.8701C13.4368 12.3388 13.9878 12.5731 14.6212 12.5731ZM24.0156 14.6821C22.8376 14.6821 21.9256 14.3148 21.2796 13.5801C20.6463 12.8454 20.3296 11.7688 20.3296 10.3501V5.0301H22.7426V10.1221C22.7426 10.9328 22.9073 11.5534 23.2366 11.9841C23.5659 12.4148 24.0853 12.6301 24.7946 12.6301C25.4659 12.6301 26.0169 12.3894 26.4476 11.9081C26.8909 11.4268 27.1126 10.7554 27.1126 9.8941V5.0301H29.5446V14.4541H27.3976L27.2076 12.8581C26.9163 13.4154 26.4919 13.8588 25.9346 14.1881C25.3899 14.5174 24.7503 14.6821 24.0156 14.6821ZM30.9012 14.4541V5.0301H33.0672L33.2952 6.7971C33.6372 6.1891 34.0995 5.70777 34.6822 5.3531C35.2775 4.98577 35.9742 4.8021 36.7722 4.8021V7.3671H36.0882C35.5562 7.3671 35.0812 7.44943 34.6632 7.6141C34.2452 7.77877 33.9158 8.06377 33.6752 8.4691C33.4472 8.87443 33.3332 9.4381 33.3332 10.1601V14.4541H30.9012ZM40.7387 14.4541V1.1541H43.1707V12.5541H49.0607V14.4541H40.7387ZM51.3176 3.5671C50.8742 3.5671 50.5069 3.4341 50.2156 3.1681C49.9369 2.9021 49.7976 2.56643 49.7976 2.1611C49.7976 1.75577 49.9369 1.42643 50.2156 1.1731C50.5069 0.907101 50.8742 0.774101 51.3176 0.774101C51.7609 0.774101 52.1219 0.907101 52.4006 1.1731C52.6919 1.42643 52.8376 1.75577 52.8376 2.1611C52.8376 2.56643 52.6919 2.9021 52.4006 3.1681C52.1219 3.4341 51.7609 3.5671 51.3176 3.5671ZM50.1016 14.4541V5.0301H52.5336V14.4541H50.1016ZM59.518 14.6821C58.8087 14.6821 58.188 14.5491 57.656 14.2831C57.124 14.0171 56.6933 13.6434 56.364 13.1621L56.098 14.4541H53.932V0.774101H56.364V6.3791C56.668 5.9611 57.067 5.59377 57.561 5.2771C58.0677 4.96043 58.72 4.8021 59.518 4.8021C60.4047 4.8021 61.1963 5.01743 61.893 5.4481C62.5897 5.87877 63.1407 6.46777 63.546 7.2151C63.9513 7.96243 64.154 8.8111 64.154 9.7611C64.154 10.7111 63.9513 11.5598 63.546 12.3071C63.1407 13.0418 62.5897 13.6244 61.893 14.0551C61.1963 14.4731 60.4047 14.6821 59.518 14.6821ZM59.005 12.5541C59.7777 12.5541 60.4173 12.2944 60.924 11.7751C61.4307 11.2558 61.684 10.5844 61.684 9.7611C61.684 8.93777 61.4307 8.2601 60.924 7.7281C60.4173 7.1961 59.7777 6.9301 59.005 6.9301C58.2197 6.9301 57.5737 7.1961 57.067 7.7281C56.573 8.24743 56.326 8.91877 56.326 9.7421C56.326 10.5654 56.573 11.2431 57.067 11.7751C57.5737 12.2944 58.2197 12.5541 59.005 12.5541ZM65.1865 14.4541V5.0301H67.3525L67.5805 6.7971C67.9225 6.1891 68.3849 5.70777 68.9675 5.3531C69.5629 4.98577 70.2595 4.8021 71.0575 4.8021V7.3671H70.3735C69.8415 7.3671 69.3665 7.44943 68.9485 7.6141C68.5305 7.77877 68.2012 8.06377 67.9605 8.4691C67.7325 8.87443 67.6185 9.4381 67.6185 10.1601V14.4541H65.1865ZM74.8287 14.6821C74.0181 14.6821 73.3531 14.5554 72.8337 14.3021C72.3144 14.0361 71.9281 13.6878 71.6747 13.2571C71.4214 12.8264 71.2947 12.3514 71.2947 11.8321C71.2947 10.9581 71.6367 10.2488 72.3207 9.7041C73.0047 9.15943 74.0307 8.8871 75.3987 8.8871H77.7927V8.6591C77.7927 8.0131 77.6091 7.5381 77.2417 7.2341C76.8744 6.9301 76.4184 6.7781 75.8737 6.7781C75.3797 6.7781 74.9491 6.89843 74.5817 7.1391C74.2144 7.3671 73.9864 7.7091 73.8977 8.1651H71.5227C71.5861 7.4811 71.8141 6.88577 72.2067 6.3791C72.6121 5.87243 73.1314 5.4861 73.7647 5.2201C74.3981 4.94143 75.1074 4.8021 75.8927 4.8021C77.2354 4.8021 78.2931 5.13777 79.0657 5.8091C79.8384 6.48043 80.2247 7.43043 80.2247 8.6591V14.4541H78.1537L77.9257 12.9341C77.6471 13.4408 77.2544 13.8588 76.7477 14.1881C76.2537 14.5174 75.6141 14.6821 74.8287 14.6821ZM75.3797 12.7821C76.0764 12.7821 76.6147 12.5541 76.9947 12.0981C77.3874 11.6421 77.6344 11.0784 77.7357 10.4071H75.6647C75.0187 10.4071 74.5564 10.5274 74.2777 10.7681C73.9991 10.9961 73.8597 11.2811 73.8597 11.6231C73.8597 11.9904 73.9991 12.2754 74.2777 12.4781C74.5564 12.6808 74.9237 12.7821 75.3797 12.7821ZM81.4056 14.4541V5.0301H83.5716L83.7996 6.7971C84.1416 6.1891 84.6039 5.70777 85.1866 5.3531C85.7819 4.98577 86.4786 4.8021 87.2766 4.8021V7.3671H86.5926C86.0606 7.3671 85.5856 7.44943 85.1676 7.6141C84.7496 7.77877 84.4202 8.06377 84.1796 8.4691C83.9516 8.87443 83.8376 9.4381 83.8376 10.1601V14.4541H81.4056ZM88.9768 18.6341L91.1618 13.8271H90.5918L86.9248 5.0301H89.5658L92.2068 11.6611L94.9618 5.0301H97.5458L91.5608 18.6341H88.9768Z" fill="white"/>
</svg>
